<?xml version="1.0" encoding="UTF-8" standalone="no"?>
<!-- Generator: Adobe Illustrator 16.0.0, SVG Export Plug-In . SVG Version: 6.00 Build 0)  -->

<svg
   xmlns:dc="http://purl.org/dc/elements/1.1/"
   xmlns:cc="http://creativecommons.org/ns#"
   xmlns:rdf="http://www.w3.org/1999/02/22-rdf-syntax-ns#"
   xmlns:svg="http://www.w3.org/2000/svg"
   xmlns="http://www.w3.org/2000/svg"
   xmlns:sodipodi="http://sodipodi.sourceforge.net/DTD/sodipodi-0.dtd"
   xmlns:inkscape="http://www.inkscape.org/namespaces/inkscape"
   version="1.1"
   id="Layer_1"
   x="0px"
   y="0px"
   width="512px"
   height="512px"
   viewBox="0 0 512 512"
   enable-background="new 0 0 512 512"
   xml:space="preserve"
   inkscape:version="0.91 r13725"
   sodipodi:docname="app.svg"><metadata
     id="metadata9"><rdf:RDF><cc:Work
         rdf:about=""><dc:format>image/svg+xml</dc:format><dc:type
           rdf:resource="http://purl.org/dc/dcmitype/StillImage" /></cc:Work></rdf:RDF></metadata><defs
     id="defs7"><filter
       inkscape:label="Light Eraser"
       style="color-interpolation-filters:sRGB;"
       id="filter3409"><feColorMatrix
         values="1 0 0 0 0 0 1 0 0 0 0 0 1 0 0 -21.25 -71.54 -7.21 50 0 "
         result="colormatrix"
         id="feColorMatrix3411" /><feComposite
         in2="colormatrix"
         operator="arithmetic"
         k2="1"
         result="fbSourceGraphic"
         id="feComposite3413" /><feColorMatrix
         result="fbSourceGraphicAlpha"
         in="fbSourceGraphic"
         values="0 0 0 -1 0 0 0 0 -1 0 0 0 0 -1 0 0 0 0 1 0"
         id="feColorMatrix3415" /><feColorMatrix
         id="feColorMatrix3417"
         values="1 0 0 0 0 0 1 0 0 0 0 0 1 0 0 -21.25 -71.54 -7.21 50 0 "
         result="colormatrix"
         in="fbSourceGraphic" /><feComposite
         id="feComposite3419"
         in2="colormatrix"
         operator="arithmetic"
         k2="1"
         result="composite" /></filter></defs><sodipodi:namedview
     pagecolor="#ffffff"
     bordercolor="#666666"
     borderopacity="1"
     objecttolerance="10"
     gridtolerance="10"
     guidetolerance="10"
     inkscape:pageopacity="0"
     inkscape:pageshadow="2"
     inkscape:window-width="1323"
     inkscape:window-height="744"
     id="namedview5"
     showgrid="false"
     inkscape:zoom="0.92187498"
     inkscape:cx="453.64256"
     inkscape:cy="259.396"
     inkscape:window-x="43"
     inkscape:window-y="24"
     inkscape:window-maximized="1"
     inkscape:current-layer="Layer_1" /><path
     d="M256,0C149.969,0,64,85.969,64,192s160,320,192,320s192-213.969,192-320S362.031,0,256,0z M256,320  c-70.594,0-128-57.438-128-128S185.406,64,256,64s128,57.438,128,128S326.594,320,256,320z"
     id="path3"
     style="fill:#b3b3b3" /><path
     style="opacity:1;fill:#ffffff;fill-opacity:1;stroke:#ff0000;stroke-width:0.87785804;stroke-linecap:butt;stroke-miterlimit:4;stroke-dasharray:1.75571607, 0.87785804;stroke-dashoffset:0;stroke-opacity:1"
     d="M 248.91673,509.24858 C 230.56801,500.07962 190.87269,454.55414 154.79361,401.30133 109.09773,333.85411 77.634458,268.76261 67.562633,220.8371 64.476451,206.15189 63.704442,185.37191 65.653374,169.44602 70.933923,126.29547 89.916923,87.289393 120.53926,56.667063 142.55287,34.653457 168.02941,18.997898 197.14663,9.5911583 c 20.07226,-6.4846296 36.32789,-8.96099834 58.799,-8.9573893 15.82056,0.002539 25.20235,0.8786925 38.58779,3.6036552 29.27974,5.9606698 57.25814,19.1024518 81.56571,38.3123618 7.16255,5.660455 23.62029,22.091106 29.14775,29.099766 27.68995,35.110068 42.05754,75.520398 42.11426,118.450638 0.0195,14.72113 -1.17042,24.05266 -5.0755,39.80466 -11.10768,44.80527 -40.59037,104.78432 -81.74458,166.29964 -43.60715,65.18186 -89.02708,115.3374 -104.44742,115.3374 -1.42318,0 -4.65279,-1.03199 -7.17691,-2.29331 z m 17.32829,-189.48636 c 45.4822,-4.02553 84.13475,-30.21804 104.50975,-70.81996 14.09646,-28.09048 17.18704,-60.24088 8.76327,-91.16176 -12.35905,-45.36594 -50.51518,-81.408176 -96.45838,-91.114479 -22.97888,-4.854691 -45.10067,-3.602599 -67.45932,3.818196 -67.1219,22.277628 -103.60883,95.090683 -81.20728,162.056633 14.25716,42.61957 49.88481,74.72409 93.7963,84.52101 14.09633,3.14498 24.60623,3.89074 38.05566,2.70036 z"
     id="path3333"
     inkscape:connector-curvature="0" /><g
     transform="matrix(1.9211487,0,0,-1.8592132,69.758786,367.39064)"
     inkscape:label="ink_ext_XXXXXX"
     id="g3361"
     style="filter:url(#filter3409)"><g
       transform="scale(0.1,0.1)"
       id="g3363"><path
         inkscape:connector-curvature="0"
         id="path3365"
         style="fill:#ffffff;fill-opacity:1;fill-rule:evenodd;stroke:none"
         d="m 0,0 1927.56,0 0,1927.56 L 0,1927.56 0,0 Z" /><path
         inkscape:connector-curvature="0"
         id="path3367"
         style="fill:#231f20;fill-opacity:1;fill-rule:evenodd;stroke:none"
         d="m 902.992,243.758 c -26.695,1.164 -26.695,1.164 -41.09,0 -59.898,-2.086 -137.207,23.219 -189.437,47.594 -53.629,1.859 -20.203,-33.43 -27.164,-71.739 0.461,-4.871 1.16,-9.98 1.855,-15.086 0,-11.609 0,-23.218 0,-34.824 -2.09,-15.324 -79.629,-16.719 -91.468,-9.984 -14.86,21.359 -25.305,9.519 -43.415,19.734 -73.363,-3.019 -47.128,17.41 -39.464,63.61 15.32,42.484 29.714,85.203 35.515,128.382 0.699,0 1.395,0 2.094,0 -11.379,51.309 -31.574,62.914 -71.738,92.399 -13,14.859 -32.5,57.113 -43.18,62.453 -32.039,55.715 -67.793,103.312 -86.363,163.672 -19.504,41.785 -76.848,9.515 -108.883,6.5 -1.395,1.394 -7.199,1.855 -17.414,6.961 -24.375,50.843 -69.184,123.976 13.469,141.386 4.175,12.77 55.019,-0.929 67.324,20.43 14.164,75.914 16.25,156.244 24.84,231.464 14.625,31.57 14.859,66.63 29.25,98.43 29.254,97.97 73.828,184.34 144.172,258.39 43.414,55.95 96.578,88.69 153.687,128.85 67.793,38.54 67.793,38.54 70.809,38.77 0,0.7 0,1.4 0,1.86 40.164,13.23 77.074,26.7 120.488,37.38 33.434,16.71 6.734,54.32 0.234,79.16 -17.414,32.27 -21.59,46.2 -17.644,81.49 24.844,14.86 78.933,1.62 110.273,-1.86 25.77,-18.11 53.395,-41.55 73.824,-68.72 28.564,-5.57 37.614,58.5 52.004,76.15 60.36,38.08 115.39,4.87 112.6,-68.25 -8.12,-21.36 -17.18,-54.1 -15.55,-78.01 4.41,-6.26 8.35,-11.14 16.71,-17.18 109.11,-47.82 244.23,-104.01 323.17,-200.81 29.48,-5.81 85.43,-111.21 91.7,-137.91 32.73,-60.13 58.27,-134.42 80.55,-201.27 12.54,-54.8 16.95,-111.91 21.83,-169.95 29.71,-8.355 83.58,3.02 87.99,-42.945 15.09,-17.644 25.53,-65.469 34.36,-92.168 -20.2,-53.859 -79.87,-34.824 -122.82,-51.304 -0.69,-2.555 -0.69,-2.555 -8.59,-11.61 -7.66,-16.949 -15.09,-33.894 -22.51,-50.844 -3.95,-55.25 -54.1,-122.113 -88.69,-165.992 -13,-26.23 -40.86,-48.519 -62.21,-67.554 -17.88,-19.504 -44.58,-41.79 -55.49,-67.559 -5.35,-65.008 25.3,-139.066 42.95,-202.906 0.23,-19.504 16.48,-43.414 4.87,-58.969 -26.7,-16.484 -61.29,-33.664 -89.38,-47.3634 -35.52,6.9644 -27.86,4.6485 -61.52,-8.1211 -50.61,-7.8945 -16.72,39.2305 -35.29,67.3245 -4.41,39.929 -15.32,80.789 -28.55,116.543 -22.06,14.625 -118.17,-22.289 -138.61,-27.86 -70.11,-8.82 -142.078,-5.339 -210.098,1.856" /><path
         inkscape:connector-curvature="0"
         id="path3369"
         style="fill:#ffffff;fill-opacity:1;fill-rule:evenodd;stroke:none"
         d="m 958.48,350.785 c -37.378,11.141 -74.988,11.375 -111.437,17.641 -44.109,17.414 -114.223,10.683 -147.883,44.347 -20.43,36.911 4.645,76.145 13.004,113.524 22.981,72.894 37.371,146.723 65.695,216.137 39.93,27.625 84.043,17.879 130.938,17.879 6.5,1.39 6.5,1.39 38.769,1.39 54.564,-6.265 132.794,11.84 180.394,-7.66 15.32,-22.055 22.74,-59.434 30.18,-88.453 16.25,-50.379 26.93,-96.344 35.52,-150.902 21.12,-45.04 27.39,-90.543 -20.67,-120.493 -44.34,-41.32 -93.33,-27.855 -147.65,-41.32 -22.98,0 -45.035,0.465 -66.86,-2.09" /><path
         inkscape:connector-curvature="0"
         id="path3371"
         style="fill:#ffffff;fill-opacity:1;fill-rule:evenodd;stroke:none"
         d="m 1378.68,761.008 c 18.81,0 37.85,0 56.88,0 15.33,3.48 68.02,13 82.42,-3.02 7.43,-18.57 -37.14,-109.808 -54.79,-120.718 -6.03,-16.02 -26,-32.735 -32.27,-50.379 -0.93,0 -1.86,0 -2.55,0 -9.52,-12.075 -36.22,-34.129 -41.33,-44.578 -15.32,7.664 -14.39,80.562 -26.46,97.507 -4.88,18.344 -39.01,105.399 -10.92,117.938 22.06,1.39 22.06,1.39 29.02,3.25" /><path
         inkscape:connector-curvature="0"
         id="path3373"
         style="fill:#ffffff;fill-opacity:1;fill-rule:evenodd;stroke:none"
         d="m 530.383,561.816 c -5.805,3.946 -10.449,10.215 -13.469,11.379 -21.82,28.321 -113.289,133.953 -65.465,159.719 40.629,9.289 85.895,16.949 130.008,9.059 5.805,-4.184 4.875,-8.825 4.875,-17.649 -8.824,-26.461 -28.09,-154.148 -55.949,-162.508" /><path
         inkscape:connector-curvature="0"
         id="path3375"
         style="fill:#ffffff;fill-opacity:1;fill-rule:evenodd;stroke:none"
         d="m 424.52,868.035 c -9.059,2.551 -17.879,0.692 -22.754,2.551 -15.321,55.488 -2.09,162.974 4.875,220.084 1.855,4.18 1.855,4.18 7.199,38.08 19.035,55.71 38.539,123.96 78.933,168.54 30.645,55.95 67.325,100.99 111.668,145.33 52,36.68 99.829,75.45 160.883,97.51 36.449,7.66 121.883,50.14 97.043,-21.59 -18.804,-34.13 -27.16,-76.61 -39.933,-115.38 -19.5,-34.83 -29.946,-78.01 -50.379,-112.84 -16.02,-60.82 -52.235,-115.84 -68.25,-179.45 -29.485,-66.4 -45.27,-145.1 -69.649,-216.374 -2.789,-1.621 -5.57,-3.48 -8.125,-5.34 -66.168,-13.23 -136.508,-13.695 -201.511,-21.121" /><path
         inkscape:connector-curvature="0"
         id="path3377"
         style="fill:#ffffff;fill-opacity:1;fill-rule:evenodd;stroke:none"
         d="m 937.352,893.105 c -27.86,8.59 -96.575,-6.035 -110.969,20.2 0,64.769 31.805,125.135 43.644,186.655 26.93,60.36 52.469,120.49 80.559,179.45 24.148,18.81 33.664,-40.39 45.039,-60.12 12.075,-52 34.355,-104.94 48.055,-158.8 3.71,-31.34 57.58,-138.365 25.54,-163.904 -70.115,-1.625 -78.935,-3.02 -131.868,-3.481" /><path
         inkscape:connector-curvature="0"
         id="path3379"
         style="fill:#ffffff;fill-opacity:1;fill-rule:evenodd;stroke:none"
         d="m 1226.62,1497.88 c 2.09,-2.79 2.09,-2.79 20.67,-13.47 78,-39.93 142.54,-112.13 185.49,-190.14 51.77,-58.5 78.01,-147.65 93.56,-225.89 1.39,-3.94 6.5,-39.7 8.59,-44.8 0.46,-30.877 13,-68.721 6.03,-98.9 -78,-1.625 -154.85,-7.2 -231.92,-4.41 -57.34,-12.309 -50.15,15.55 -67.1,65.234 -0.69,0 -1.39,0 -1.85,0 -17.88,55.486 -47.36,114.456 -52.24,169.936 -12.3,35.06 -22.05,67.56 -36.22,99.37 -4.41,50.14 -33.89,106.79 -46.43,154.15 -5.8,31.57 -48.29,119.33 -19.96,135.34 45.03,2.33 100.76,-25.07 141.38,-46.42" /></g></g><path
     style="opacity:1;fill:#ffffff;fill-opacity:1;stroke:#0d0906;stroke-width:2.1;stroke-miterlimit:4;stroke-dasharray:none;stroke-opacity:1"
     d="m 317.59805,349.32431 c -0.31215,-1.11209 -0.89418,-5.19488 -1.29341,-9.07285 -0.39924,-3.87796 -1.78085,-10.71186 -3.07025,-15.18644 l -2.34437,-8.13559 -4.10239,-0.33874 c -2.33305,-0.19263 -8.41505,0.97698 -14.1017,2.71187 -9.85039,3.00517 -10.37084,3.04714 -34.94846,2.81845 -28.20878,-0.26248 -35.36621,-1.0996 -48.97381,-5.72789 -10.4466,-3.55316 -13.89955,-3.98552 -15.20878,-1.90437 -0.46915,0.74576 -0.69689,6.04521 -0.50608,11.77655 l 0.34691,10.42061 -3.49014,0.69804 c -5.76837,1.15367 -11.27755,0.79373 -13.68753,-0.89429 -1.25034,-0.87577 -4.4098,-1.88278 -7.02102,-2.2378 -9.1004,-1.23729 -9.62904,-1.47391 -9.62904,-4.31001 0,-1.47128 1.49706,-7.18108 3.32679,-12.68844 6.86073,-20.65024 6.47314,-24.08184 -3.71328,-32.87615 -7.08436,-6.11619 -18.34092,-22.39828 -26.24096,-37.95631 l -5.50811,-10.84746 -5.89832,0.11056 c -3.24408,0.0608 -8.09494,0.30488 -10.77968,0.54237 l -4.88136,0.43182 -3.52542,-6.94797 c -1.93898,-3.82139 -3.525425,-8.35882 -3.525425,-10.0832 0,-4.69506 4.029855,-8.02701 11.501735,-9.50984 9.17231,-1.82028 9.92076,-2.0997 10.63927,-3.97211 0.35558,-0.92662 1.62507,-11.03685 2.82109,-22.46718 2.50455,-23.93585 5.45647,-35.60163 14.00752,-55.35662 7.37752,-17.04386 25.33809,-37.630439 43.32191,-49.655974 14.23336,-9.517653 20.87335,-12.783671 33.77627,-16.613574 5.6678,-1.682339 10.96715,-3.580172 11.77634,-4.217404 2.02697,-1.596233 1.05466,-9.16016 -1.9082,-14.844518 -1.28901,-2.473017 -2.6315,-6.596504 -2.98332,-9.163304 -0.62029,-4.52546 -0.53776,-4.689293 2.72263,-5.405394 4.23676,-0.930551 15.00096,0.336164 18.66391,2.196343 1.52891,0.776433 5.26164,3.643062 8.29498,6.370287 3.03333,2.727223 6.31838,4.958588 7.30012,4.958588 1.12293,0 2.965,-2.49513 4.96646,-6.727199 3.56772,-7.543968 6.08948,-9.449652 12.57849,-9.505549 7.60554,-0.06552 12.24644,6.309188 10.83274,14.87976 -2.01294,12.203335 -2.00482,14.876507 0.0507,16.662168 1.10566,0.960524 8.88152,4.757827 17.27968,8.438449 17.63078,7.726943 31.25387,16.174123 42.66747,26.45651 9.92552,8.941801 13.87571,14.419571 20.90003,28.982301 11.88149,24.63254 17.0245,41.30085 18.8189,60.99126 l 0.76377,8.38108 3.94276,0.61708 c 9.71981,1.52126 10.31766,1.88275 13.42017,8.11472 1.63291,3.28001 3.65861,8.27862 4.50154,11.10801 1.41757,4.75822 1.37629,5.34309 -0.55005,7.79203 -2.00838,2.55324 -4.57897,3.35786 -17.50403,5.47897 -3.51603,0.57701 -4.42714,1.36874 -6.64084,5.77077 -1.41113,2.80611 -3.34074,7.78676 -4.28801,11.06812 -2.90205,10.05272 -15.89884,28.558 -26.51846,37.75795 -3.51048,3.04118 -7.75548,7.51036 -9.43333,9.9315 -2.79171,4.02842 -2.99606,4.97656 -2.40749,11.16988 0.35374,3.72228 1.89449,10.91694 3.42389,15.98813 4.66158,15.45691 6.3178,22.57502 5.65473,24.30295 -0.96377,2.51154 -13.60123,8.54746 -19.71536,9.41647 -2.98306,0.42399 -7.20368,1.12047 -9.37917,1.54774 -3.31875,0.6518 -4.0468,0.45137 -4.52297,-1.24516 z m -43.01857,-48.17699 c 12.75671,-1.57939 16.29333,-2.81883 22.02645,-7.71936 6.35736,-5.43409 7.14362,-9.01623 4.17339,-19.01358 -1.20647,-4.06079 -2.48796,-9.15981 -2.84776,-11.33116 -0.7374,-4.45011 -7.3549,-28.0816 -9.15182,-32.68172 -0.64507,-1.65138 -2.50836,-3.51026 -4.14064,-4.13085 -1.87042,-0.71114 -13.62835,-1.00477 -31.79907,-0.79411 -25.01057,0.28995 -29.20611,0.58011 -31.65976,2.18956 -3.06299,2.00914 -4.8389,6.82548 -14.45422,39.20028 -7.39192,24.88866 -6.70574,26.1704 16.29956,30.44692 28.57408,5.31171 35.474,5.82485 51.55387,3.83402 z m 67.93051,-40.44553 c 7.83635,-8.61913 15.25383,-19.96645 17.81163,-27.24838 3.19056,-9.08339 2.42312,-9.53155 -14.67974,-8.57243 -17.97622,1.00811 -18.40669,1.15926 -18.80971,6.6045 -0.19645,2.65402 0.74602,7.6521 2.33864,12.40237 1.46724,4.37626 3.1904,10.79186 3.82924,14.25689 1.90803,10.34885 2.32407,10.46072 9.50994,2.55705 z m -168.64472,0.63442 c 0.88913,-1.04407 2.16749,-3.36272 2.8408,-5.15255 2.35918,-6.27122 5.75567,-21.45799 5.42901,-24.27474 -0.32723,-2.82161 -0.40207,-2.84374 -9.55015,-2.82371 -16.75835,0.0367 -20.6933,2.08553 -18.59572,9.68234 1.60139,5.79978 14.8977,24.46696 17.42738,24.46696 0.45765,0 1.55956,-0.85424 2.44868,-1.8983 z m -0.75419,-56.77966 c 7.74701,-0.67684 15.16293,-1.64027 16.47981,-2.14096 1.92834,-0.73315 3.26943,-3.7175 6.89064,-15.33383 5.34585,-17.14881 10.43468,-31.10005 16.73549,-45.88115 2.5432,-5.9661 7.12327,-16.70509 10.17793,-23.86441 5.12649,-12.01511 9.2906,-23.223842 12.39439,-33.362518 1.06634,-3.483272 0.97758,-4.344116 -0.61188,-5.933574 -1.75576,-1.755755 -2.29637,-1.750043 -9.71739,0.102661 -10.37923,2.591239 -19.84258,7.018191 -30.91573,14.462365 -20.9548,14.087336 -41.07766,43.954716 -46.47393,68.978986 -1.82815,8.47771 -3.34552,36.71826 -2.21492,41.22291 0.80405,3.20363 2.76135,3.95412 8.83113,3.38617 2.38644,-0.22331 10.67745,-0.9598 18.42446,-1.63665 z m 103.57128,-5.25073 c 1.75238,-3.27434 1.42411,-5.34578 -3.30079,-20.82918 -12.43251,-40.74112 -15.93328,-49.75061 -19.33127,-49.75061 -4.26,0 -23.57771,47.9761 -25.67071,63.75401 -1.12309,8.46627 -0.63019,8.62762 26.87904,8.79813 19.03066,0.11796 20.37107,-0.005 21.42373,-1.97235 z m 76.37539,-2.96176 13.96435,-0.71215 -0.74037,-8.23261 c -1.08549,-12.07049 -5.30286,-30.83271 -9.19819,-40.9209 -3.1857,-8.25036 -14.78937,-26.41 -23.12671,-36.19305 -12.08519,-14.180789 -40.54517,-30.372877 -53.38481,-30.372877 -3.12931,0 -3.92827,0.470608 -4.47115,2.633576 -0.36354,1.448468 -0.34612,3.767112 0.0387,5.152543 1.6736,6.025126 14.15701,44.546918 17.10677,52.788778 1.78134,4.9772 3.92815,12.05517 4.77069,15.72881 1.96264,8.55764 13.28622,38.9707 14.89999,40.01867 1.53219,0.99498 21.6962,1.04985 40.14072,0.10921 l -2e-5,0 z"
     id="path3421"
     inkscape:connector-curvature="0" /></svg>